# Wavefront OBJ file automatically generated by Tiled2Unity

# Vertices (Count = 24)
v 0 -0.984127 0
v -1 -0.984127 0
v -1 0.01587302 0
v 0 0.01587302 0
v -0.984127 -0.984127 0
v -1.984127 -0.984127 0
v -1.984127 0.01587302 0
v -0.984127 0.01587302 0
v -1.968254 -0.984127 0
v -2.968254 -0.984127 0
v -2.968254 0.01587302 0
v -1.968254 0.01587302 0
v -2.952381 -0.984127 0
v -3.952381 -0.984127 0
v -3.952381 0.01587302 0
v -2.952381 0.01587302 0
v -3.936508 -0.984127 0
v -4.936508 -0.984127 0
v -4.936508 0.01587302 0
v -3.936508 0.01587302 0
v -4.920635 -0.984127 0
v -5.920635 -0.984127 0
v -5.920635 0.01587302 0
v -4.920635 0.01587302 0

# Texture cooridinates (Count = 24)
vt 0.05337249 0.8342168
vt 0.105084 0.8342168
vt 0.105084 0.9973894
vt 0.05337249 0.9973894
vt 0.4737337 0.00520128
vt 0.5254452 0.00520128
vt 0.5254452 0.1683739
vt 0.4737337 0.1683739
vt 0.5262789 0.00520128
vt 0.5779904 0.00520128
vt 0.5779904 0.1683739
vt 0.5262789 0.1683739
vt 0.578824 0.00520128
vt 0.6305355 0.00520128
vt 0.6305355 0.1683739
vt 0.578824 0.1683739
vt 0.6313692 0.00520128
vt 0.6830807 0.00520128
vt 0.6830807 0.1683739
vt 0.6313692 0.1683739
vt 0.1059176 0.8342168
vt 0.1576291 0.8342168
vt 0.1576291 0.9973894
vt 0.1059176 0.9973894

# Normal
vn 0 0 -1

# Groups (Count = 1)

g mesh_0001
f 1/1/1 2/2/1 3/3/1 4/4/1
f 5/5/1 6/6/1 7/7/1 8/8/1
f 9/9/1 10/10/1 11/11/1 12/12/1
f 13/13/1 14/14/1 15/15/1 16/16/1
f 17/17/1 18/18/1 19/19/1 20/20/1
f 21/21/1 22/22/1 23/23/1 24/24/1

